# xmcd
#
# Track frame offsets: 
#        150
#        17919
#        31783
#        46722
#        59389
#        72053
#        84894
#        96911
#        112905
#        129294
#        140019
#        149267
#        169016
#        179980
#        193005
#        204388
#        220401
#        239278
#        255581
#        269168
#
# Disc length: 3785 seconds
#
# Revision: 0
# Processed by: cddbd v1.5.2PL0 Copyright (c) Steve Scherf et al.
# Submitted via: ExactAudioCopyFreeDBPlugin 1.0
#
DISCID=240ec714
DTITLE=Various Artist - Ten Guitars Heartland 2 (2 of 2)
DYEAR=2014
DGENRE=Country
TTITLE0=Bobby Goldsboro - Honey
TTITLE1=Tom Jones - Green Green Grass Of Home
TTITLE2=Kenny Dale - Bluest Heartache Of The Year
TTITLE3=Patsy Cline - I Fall To Pieces
TTITLE4=Susan Raye - L.A., International Airport
TTITLE5=Al Hunter - There's A Blue Sky Waitin' For Me
TTITLE6=Glen Campbell - Galveston
TTITLE7=John Hanlon - Lovely Lady
TTITLE8=Kenny Rogers - Lucille
TTITLE9=Faron Young - Hello Walls
TTITLE10=Burl Ives - A Little Bitty Tear
TTITLE11=Marty Robbins - El Paso
TTITLE12=Conway Twitty - Hello Darlin'
TTITLE13=Allison Durbin - I Have Loved Me A Man
TTITLE14=Sandy Posey - The Single Girl
TTITLE15=Shania Twain - You're Still The One
TTITLE16=Juice Newton - Angel Of The Morning
TTITLE17=Anne Murray - You Needed Me
TTITLE18=Patsy Riggir - Lay Down Beside Me
TTITLE19=Jeanne Pruett - Satin Sheets
EXTD=
EXTT0=
EXTT1=
EXTT2=
EXTT3=
EXTT4=
EXTT5=
EXTT6=
EXTT7=
EXTT8=
EXTT9=
EXTT10=
EXTT11=
EXTT12=
EXTT13=
EXTT14=
EXTT15=
EXTT16=
EXTT17=
EXTT18=
EXTT19=
PLAYORDER=
